<svg width="18" height="17" viewBox="0 0 18 17" fill="none" xmlns="http://www.w3.org/2000/svg">
<path d="M13.9035 0C14.2208 0 14.4826 0.244619 14.521 0.56028L14.526 0.640843L14.5253 6.83541H17.2232C17.5405 6.83541 17.803 7.08003 17.8414 7.39642L17.8457 7.47698V14.3124C17.8457 14.4684 17.7904 14.619 17.6902 14.7361C17.59 14.8531 17.4518 14.9285 17.3014 14.9481L17.2232 14.9532L15.4061 14.9525L14.3432 16.0467C14.2469 16.1459 14.1217 16.2098 13.9868 16.2287C13.8519 16.2476 13.7146 16.2205 13.5961 16.1514L13.5271 16.1046L13.4631 16.0467L12.3994 14.9525H8.09293C7.95456 14.9525 7.82013 14.9051 7.71087 14.8177C7.60162 14.7303 7.52376 14.6079 7.4896 14.4699L7.47537 14.3922L7.47039 14.3117L7.46968 11.5352H6.27513L4.79813 13.0563C4.70174 13.1556 4.57638 13.2195 4.4413 13.2383C4.30622 13.257 4.16889 13.2297 4.05038 13.1603L3.98136 13.1135L3.91733 13.0563L2.43962 11.5352H0.622533C0.48407 11.5351 0.349567 11.4876 0.240299 11.4C0.13103 11.3125 0.0532321 11.19 0.0192096 11.0518L0.00498043 10.9749L0 10.8943V0.640843C0 0.314196 0.23763 0.044676 0.544272 0.00512691L0.622533 0H13.9035ZM16.6006 8.11709H14.5253V10.8943C14.5253 11.0503 14.47 11.201 14.3698 11.318C14.2696 11.435 14.1314 11.5104 13.981 11.53L13.9028 11.5352H8.71546V13.6708H12.6584C12.768 13.6708 12.8754 13.7016 12.9693 13.7572L13.0369 13.8034L13.0981 13.859L13.9028 14.6866L14.7081 13.859C14.7854 13.7797 14.8816 13.7226 14.987 13.6935L15.0667 13.6767L15.1485 13.6716L16.6006 13.6708V8.11709ZM7.26265 5.12674H6.84786L6.7696 5.13187C6.61932 5.15155 6.48116 5.22698 6.38103 5.344C6.2809 5.46103 6.22565 5.61163 6.22565 5.76758C6.22565 5.92353 6.2809 6.07413 6.38103 6.19116C6.48116 6.30819 6.61932 6.38361 6.7696 6.4033L6.84786 6.40842H7.26265L7.34091 6.4033C7.4979 6.38273 7.6414 6.30139 7.74221 6.1758C7.84302 6.05021 7.89358 5.88981 7.88362 5.72722C7.87365 5.56463 7.8039 5.41204 7.68855 5.3005C7.5732 5.18896 7.42091 5.12683 7.26265 5.12674ZM10.1683 5.12674H9.75278L9.67452 5.13187C9.52423 5.15155 9.38608 5.22698 9.28595 5.344C9.18581 5.46103 9.13057 5.61163 9.13057 5.76758C9.13057 5.92353 9.18581 6.07413 9.28595 6.19116C9.38608 6.30819 9.52423 6.38361 9.67452 6.4033L9.75278 6.40842H10.1683L10.2465 6.4033C10.4035 6.38273 10.547 6.30139 10.6478 6.1758C10.7486 6.05021 10.7992 5.88981 10.7892 5.72722C10.7793 5.56463 10.7095 5.41204 10.5942 5.3005C10.4788 5.18896 10.3265 5.12683 10.1683 5.12674ZM4.35773 5.12674H3.94295L3.86468 5.13187C3.7144 5.15155 3.57625 5.22698 3.47611 5.344C3.37598 5.46103 3.32074 5.61163 3.32074 5.76758C3.32074 5.92353 3.37598 6.07413 3.47611 6.19116C3.57625 6.30819 3.7144 6.38361 3.86468 6.4033L3.94295 6.40842H4.35773L4.43599 6.4033C4.59299 6.38273 4.73648 6.30139 4.83729 6.1758C4.93811 6.05021 4.98867 5.88981 4.9787 5.72722C4.96873 5.56463 4.89898 5.41204 4.78363 5.3005C4.66828 5.18896 4.51599 5.12683 4.35773 5.12674Z" fill="black"/>
</svg>
