<svg width="17" height="17" viewBox="0 0 17 17" fill="none" xmlns="http://www.w3.org/2000/svg">
<path d="M8.20833 0.000493478C6.05436 -0.0220382 3.97983 0.836717 2.44066 2.38803C0.901489 3.93934 0.0236252 6.05627 0 8.27357C0.00829965 10.0259 0.555885 11.7304 1.56411 13.1423C2.57233 14.5542 3.98931 15.6008 5.61152 16.1318C6.02193 16.2087 6.17117 15.9552 6.17117 15.7324V14.3267C3.88776 14.826 3.40273 13.2205 3.40273 13.2205C3.25072 12.7165 2.92756 12.2857 2.49235 12.0068C1.74614 11.4998 2.55205 11.5075 2.55205 11.5075C2.80997 11.543 3.05675 11.6382 3.27386 11.7858C3.49098 11.9335 3.6728 12.1299 3.80568 12.3602C4.03725 12.7735 4.41723 13.0768 4.86382 13.2046C5.31041 13.3325 5.78791 13.2748 6.19356 13.0438C6.23528 12.6232 6.42033 12.2313 6.71591 11.9377C4.89515 11.7303 2.98485 11.0236 2.98485 7.85108C2.96857 7.02353 3.2656 6.2219 3.81314 5.61574C3.56378 4.90524 3.59322 4.12268 3.89523 3.43417C3.89523 3.43417 4.5892 3.2114 6.13386 4.27914C7.47846 3.9103 8.89343 3.9103 10.238 4.27914C11.8051 3.2114 12.4767 3.43417 12.4767 3.43417C12.7787 4.12268 12.8081 4.90524 12.5587 5.61574C13.119 6.21079 13.4322 7.00704 13.4318 7.83572C13.4318 11.0159 11.5066 11.7149 9.70076 11.9223C9.89849 12.12 10.0512 12.3602 10.148 12.6259C10.2448 12.8915 10.2832 13.1759 10.2604 13.4586V15.7247C10.2604 15.9936 10.4097 16.2087 10.8201 16.1242C12.4377 15.5898 13.8499 14.543 14.855 13.1331C15.8601 11.7232 16.4067 10.0224 16.4167 8.27357C16.393 6.05627 15.5152 3.93934 13.976 2.38803C12.4368 0.836717 10.3623 -0.0220382 8.20833 0.000493478Z" fill="#231F20"/>
</svg>
