<svg width="18" height="17" viewBox="0 0 18 17" fill="none" xmlns="http://www.w3.org/2000/svg">
<path d="M14.0237 0C14.3437 0 14.6078 0.246734 14.6466 0.565124L14.6516 0.646384L14.6509 6.89451H17.3721C17.6921 6.89451 17.9569 7.14124 17.9957 7.46037L18 7.54163V14.4361C18 14.5935 17.9442 14.7454 17.8432 14.8635C17.7421 14.9815 17.6027 15.0576 17.451 15.0774L17.3721 15.0825L15.5393 15.0818L14.4672 16.1854C14.3701 16.2855 14.2438 16.35 14.1077 16.369C13.9716 16.3881 13.8332 16.3607 13.7137 16.2911L13.6441 16.2438L13.5795 16.1854L12.5066 15.0818H8.1629C8.02333 15.0818 7.88774 15.0339 7.77754 14.9458C7.66734 14.8576 7.58881 14.7342 7.55436 14.595L7.54001 14.5167L7.53498 14.4354L7.53427 11.6349H6.32939L4.83961 13.1692C4.74239 13.2693 4.61595 13.3338 4.4797 13.3527C4.34345 13.3717 4.20493 13.3441 4.0854 13.2741L4.01579 13.2268L3.9512 13.1692L2.46071 11.6349H0.627916C0.488255 11.6349 0.35259 11.5869 0.242376 11.4986C0.132163 11.4103 0.0536923 11.2867 0.0193757 11.1473L0.00502349 11.0698L0 10.9885V0.646384C0 0.316913 0.239684 0.0450623 0.548978 0.00517124L0.627916 0H14.0237ZM16.7442 8.18728H14.6509V10.9885C14.6509 11.1459 14.5951 11.2978 14.494 11.4159C14.393 11.5339 14.2535 11.6099 14.1019 11.6297L14.023 11.6349H8.79082V13.789H12.7679C12.8784 13.789 12.9867 13.82 13.0814 13.8762L13.1496 13.9227L13.2113 13.9789L14.023 14.8136L14.8353 13.9789C14.9132 13.8988 15.0102 13.8412 15.1166 13.8119L15.197 13.7949L15.2795 13.7898L16.7442 13.789V8.18728ZM7.32544 5.17107H6.90707L6.82813 5.17624C6.67655 5.19609 6.5372 5.27217 6.4362 5.39021C6.3352 5.50825 6.27948 5.66015 6.27948 5.81745C6.27948 5.97475 6.3352 6.12665 6.4362 6.24469C6.5372 6.36273 6.67655 6.43881 6.82813 6.45866L6.90707 6.46383H7.32544L7.40438 6.45866C7.56273 6.43792 7.70746 6.35587 7.80915 6.22919C7.91083 6.10252 7.96183 5.94074 7.95178 5.77674C7.94173 5.61274 7.87137 5.45884 7.75502 5.34633C7.63868 5.23382 7.48507 5.17115 7.32544 5.17107ZM10.2562 5.17107H9.8371L9.75816 5.17624C9.60658 5.19609 9.46723 5.27217 9.36623 5.39021C9.26523 5.50825 9.20951 5.66015 9.20951 5.81745C9.20951 5.97475 9.26523 6.12665 9.36623 6.24469C9.46723 6.36273 9.60658 6.43881 9.75816 6.45866L9.8371 6.46383H10.2562L10.3351 6.45866C10.4935 6.43792 10.6382 6.35587 10.7399 6.22919C10.8416 6.10252 10.8926 5.94074 10.8825 5.77674C10.8725 5.61274 10.8021 5.45884 10.6858 5.34633C10.5694 5.23382 10.4158 5.17115 10.2562 5.17107ZM4.39541 5.17107H3.97704L3.8981 5.17624C3.74652 5.19609 3.60717 5.27217 3.50617 5.39021C3.40517 5.50825 3.34945 5.66015 3.34945 5.81745C3.34945 5.97475 3.40517 6.12665 3.50617 6.24469C3.60717 6.36273 3.74652 6.43881 3.8981 6.45866L3.97704 6.46383H4.39541L4.47435 6.45866C4.6327 6.43792 4.77743 6.35587 4.87912 6.22919C4.9808 6.10252 5.0318 5.94074 5.02175 5.77674C5.01169 5.61274 4.94134 5.45884 4.82499 5.34633C4.70864 5.23382 4.55504 5.17115 4.39541 5.17107Z" fill="black"/>
</svg>
