<svg width="17" height="17" viewBox="0 0 17 17" fill="none" xmlns="http://www.w3.org/2000/svg">
<path d="M8.50002 0.00044781C6.26951 -0.0228846 4.12126 0.866387 2.52739 2.47283C0.933524 4.07926 0.0244647 6.27142 0 8.56751C0.00859459 10.3821 0.575639 12.1472 1.61969 13.6092C2.66374 15.0713 4.13107 16.1551 5.81092 16.705C6.23592 16.7846 6.39047 16.5221 6.39047 16.2914V14.8357C4.02592 15.3528 3.52364 13.6903 3.52364 13.6903C3.36624 13.1684 3.0316 12.7222 2.58092 12.4334C1.80819 11.9084 2.64273 11.9164 2.64273 11.9164C2.90983 11.9531 3.16537 12.0517 3.3902 12.2046C3.61503 12.3575 3.80331 12.5608 3.94092 12.7993C4.18072 13.2274 4.5742 13.5414 5.03666 13.6738C5.49912 13.8062 5.99359 13.7464 6.41365 13.5073C6.45685 13.0717 6.64848 12.6659 6.95456 12.3618C5.0691 12.1471 3.09092 11.4152 3.09092 8.13001C3.07406 7.27305 3.38165 6.44294 3.94865 5.81523C3.69042 5.07949 3.72091 4.26912 4.03365 3.55614C4.03365 3.55614 4.75228 3.32546 6.35183 4.43114C7.74421 4.04919 9.20947 4.04919 10.6018 4.43114C12.2246 3.32546 12.92 3.55614 12.92 3.55614C13.2328 4.26912 13.2633 5.07949 13.005 5.81523C13.5852 6.43143 13.9095 7.25598 13.9091 8.1141C13.9091 11.4073 11.9155 12.1312 10.0455 12.3459C10.2502 12.5506 10.4084 12.7994 10.5086 13.0745C10.6088 13.3495 10.6486 13.6441 10.625 13.9368V16.2834C10.625 16.5619 10.7796 16.7846 11.2046 16.6971C12.8797 16.1438 14.3421 15.0597 15.3829 13.5997C16.4237 12.1397 16.9897 10.3784 17 8.56751C16.9756 6.27142 16.0665 4.07926 14.4727 2.47283C12.8788 0.866387 10.7305 -0.0228846 8.50002 0.00044781Z" fill="#231F20"/>
</svg>
