<svg width="16" height="16" viewBox="0 0 16 16" fill="none" xmlns="http://www.w3.org/2000/svg">
<path d="M8 0C3.58125 0 0 3.58125 0 8C0 12.4187 3.58125 16 8 16C12.4187 16 16 12.4187 16 8C16 3.58125 12.4187 0 8 0ZM5.275 14.45C4.44219 14.0969 3.69219 13.5922 3.05 12.95C2.40625 12.3062 1.90156 11.5578 1.55 10.725C1.18437 9.8625 1 8.94531 1 8C1 7.54688 1.04219 7.1 1.12656 6.66406C1.22812 6.70312 1.34219 6.725 1.45312 6.725C1.60469 6.725 1.75469 6.6875 1.87656 6.60625C2.00156 6.52344 2.14688 6.47969 2.29063 6.47969C2.41406 6.47969 2.5375 6.5125 2.64687 6.57969C2.77344 6.65781 2.8625 6.76094 2.8625 6.93594C2.8625 8.21094 2.90625 9.57187 4.06406 9.59062C4.09844 9.59062 4.70781 9.82344 4.99844 10.5797C5.03281 10.6672 5.09844 10.6953 5.18906 10.6953C5.36875 10.6953 5.64219 10.5797 5.93281 10.5797C6.15 10.5797 5.93281 10.9484 5.93281 11.7437C5.93438 12.5312 7.64062 13.7516 7.64062 13.7516C7.63125 14.2516 7.65469 14.6656 7.69219 14.9922C6.85625 14.9578 6.04375 14.775 5.275 14.45ZM12.95 12.95C12.3062 13.5938 11.5578 14.0984 10.725 14.45C10.3438 14.6109 9.95312 14.7375 9.55313 14.8266C9.52969 14.8219 9.50313 14.8203 9.475 14.8203C9.42031 14.8203 9.35781 14.8281 9.2875 14.8469C9.52969 13.8234 9.64531 13.2469 10.1453 12.8125C10.8328 12.2156 10.2969 11.5562 9.77031 11.5562C9.74062 11.5562 9.70938 11.5578 9.67969 11.5625C9.65625 11.5656 9.63594 11.5672 9.61719 11.5672C9.27031 11.5672 9.5 11.0219 9.13125 10.9906C8.74375 10.9578 8.23594 10.1875 7.67188 9.92031C7.375 9.77969 7.08594 9.40156 6.625 9.38125H6.59844C6.30781 9.38125 5.9375 9.55469 5.74844 9.55469C5.67344 9.55469 5.62656 9.52656 5.62656 9.45C5.62656 8.55781 5.53437 7.92344 5.52031 7.67188C5.51406 7.58594 5.48906 7.56094 5.50313 7.56094C5.52188 7.56094 5.61562 7.61094 5.9375 7.61875H5.94531C6.23594 7.61875 6.09688 7.01719 6.38438 6.99375C6.39687 6.99219 6.40938 6.99219 6.42188 6.99219C6.67812 6.99219 7.16406 7.17656 7.41875 7.17656C7.47187 7.17656 7.51406 7.16875 7.54219 7.15C7.54531 7.14844 7.54844 7.14687 7.55312 7.14687C7.69062 7.14687 8.23125 8.49531 8.53438 8.49531C8.65938 8.49531 8.74375 8.26562 8.74375 7.62031C8.74375 7.35313 8.60312 6.8875 8.74375 6.63125C9.29219 5.62813 9.80469 4.80781 9.76094 4.69219C9.74687 4.65625 9.58438 4.62344 9.37031 4.62344C9.1875 4.62344 8.96875 4.64687 8.77188 4.71094C8.625 4.75938 8.81563 4.9875 8.6125 5.03594C8.47656 5.06719 8.34375 5.08125 8.21875 5.08125C7.62187 5.08125 7.19063 4.76406 7.38594 4.45937C7.63438 4.08594 8.52344 4.29375 8.60312 3.54375C8.63906 3.19688 8.67031 2.80625 8.69375 2.47344C8.70156 2.35313 8.79844 2.25938 8.91875 2.25156C9.5 2.20938 9.55937 1.51719 9.01562 1.075C9.60156 1.15938 10.1734 1.31875 10.7219 1.55156C11.5547 1.90469 12.3047 2.40938 12.9469 3.05156C13.5312 3.63594 14 4.30625 14.3469 5.04844C14.2578 4.99375 14.1656 4.96719 14.075 4.96719C13.6328 4.96719 13.2281 5.56719 13.4812 6.24844C11.4031 7.84219 11.9359 8.95781 12.6141 9.59219C12.8141 9.77969 13.0109 10.0203 13.1828 10.2594C13.3484 10.4875 13.4516 10.7516 13.5109 11.0281C13.5328 11.1281 13.6109 11.1781 13.725 11.1781C13.8969 11.1781 14.1469 11.0641 14.3984 10.8391C14.0516 11.625 13.5641 12.3359 12.95 12.95Z" fill="black"/>
</svg>
