<svg width="78" height="69" viewBox="0 0 78 69" fill="none" xmlns="http://www.w3.org/2000/svg">
  <!-- Bottom yellow bar -->
  <g transform="translate(14.19, 51.65)">
    <path d="M50.0005 17.2263H1.60525C1.37067 17.2247 1.13923 17.1721 0.927031 17.0721C0.714831 16.9722 0.526906 16.8271 0.376409 16.6471C0.225894 16.4673 0.116399 16.2567 0.0554706 16.0301C-0.00545745 15.8035 -0.016357 15.5664 0.0235798 15.3352L2.72271 1.07477e-05H52.4589C52.695 -0.000848847 52.9282 0.0498628 53.1426 0.148888C53.3568 0.247742 53.547 0.392501 53.6993 0.572672C53.8518 0.753015 53.9629 0.964477 54.0247 1.19227C54.0866 1.42006 54.098 1.65851 54.0578 1.89112L51.5821 15.9541C51.5036 16.3149 51.3036 16.6382 51.0158 16.8696C50.728 17.1011 50.3698 17.227 50.0005 17.2263Z" fill="url(#paint0_linear_yellow)"/>
  </g>
  <!-- Blue gradient bar -->
  <g transform="translate(23, 0)">
    <path d="M50.2863 17.2093H0L2.83666 1.32392C2.89821 0.950527 3.09179 0.611639 3.38199 0.368752C3.67219 0.125865 4.03992 -0.00491321 4.41832 0.000141211H52.6932C52.9287 -0.00130291 53.1616 0.0493269 53.3753 0.148404C53.589 0.247463 53.7781 0.392529 53.9293 0.573215C54.0804 0.753885 54.1897 0.965741 54.2494 1.19359C54.3092 1.42145 54.3178 1.65968 54.2748 1.89125L51.8164 15.8855C51.75 16.2472 51.5623 16.5758 51.2841 16.8165C51.006 17.0571 50.6539 17.1957 50.2863 17.2093Z" fill="url(#paint1_linear_blue)"/>
  </g>
  <!-- Dark blue bar -->
  <g transform="translate(2.76, 17.21)">
    <path d="M17.192 17.2263H0L2.81951 1.34097C2.88078 0.966018 3.07364 0.625102 3.36346 0.379258C3.6533 0.133585 4.0212 -0.000855498 4.40118 4.09667e-06H20.2693L17.192 17.2263Z" fill="#0064FF"/>
  </g>
  <!-- Cyan bar 1 -->
  <g transform="translate(19.95, 17.24)">
    <path d="M15.8509 17.1919H0L3.02577 0H20.2177L17.4154 15.8853C17.3442 16.2496 17.1499 16.5785 16.8651 16.8164C16.5802 17.0544 16.2219 17.1869 15.8509 17.1919Z" fill="#00C7F8"/>
  </g>
  <!-- Cyan bar 2 -->
  <g transform="translate(0, 34.44)">
    <path d="M16.9094 17.2091H1.60862C1.37308 17.2106 1.14012 17.1599 0.926416 17.0609C0.712714 16.9619 0.52355 16.8168 0.372433 16.6361C0.221316 16.4554 0.111957 16.2436 0.0522366 16.0156C-0.00748427 15.7878 -0.0161134 15.5496 0.0269481 15.318L2.72608 0H19.918L16.9094 17.2091Z" fill="#00C7F8"/>
  </g>
  <defs>
    <linearGradient id="paint0_linear_yellow" x1="-3.8274" y1="8.61315" x2="58.3385" y2="8.61315" gradientUnits="userSpaceOnUse">
      <stop stop-color="#FFA000"/>
      <stop offset="0.5" stop-color="#FFB700"/>
      <stop offset="1" stop-color="#FFD300"/>
    </linearGradient>
    <linearGradient id="paint1_linear_blue" x1="0" y1="8.61335" x2="54.378" y2="8.61335" gradientUnits="userSpaceOnUse">
      <stop offset="0.04" stop-color="#0064FF"/>
      <stop offset="0.29" stop-color="#006DFF"/>
      <stop offset="0.7" stop-color="#0085FF"/>
      <stop offset="1" stop-color="#009BFF"/>
    </linearGradient>
  </defs>
</svg>
