<svg width="151" height="44" viewBox="0 0 151 44" fill="none" xmlns="http://www.w3.org/2000/svg">
<path d="M72.3385 8.96793H51.4094V11.3064H72.3385V8.96793Z" fill="#0052D9"/>
<path d="M123.551 8.96793H106.931V11.3064H123.551V8.96793Z" fill="#0052D9"/>
<path d="M60.6432 20.5404V34.8208H62.9817V20.5404H60.6432Z" fill="#0052D9"/>
<path d="M122.813 20.417H106.931V20.5392V22.7555V34.8207H109.271V22.7555H122.813V20.417Z" fill="#0052D9"/>
<path d="M127.861 34.8197L146.335 8.96793H148.879L130.404 34.8197H127.861Z" fill="#0052D9"/>
<path d="M137.773 17.4074L131.743 8.96793H129.198L136.501 19.1873L137.773 17.4074Z" fill="#0052D9"/>
<path d="M140.303 24.5052L147.674 34.8193H150.217L141.575 22.7265L140.303 24.5052Z" fill="#0052D9"/>
<path d="M101.194 20.5115L100.019 20.5391H84.2799V22.8764H98.8911C98.6677 25.5798 97.4757 28.1117 95.5344 30.0064C93.593 31.9011 91.0329 33.0311 88.3248 33.1887C85.6167 33.3463 82.9428 32.5209 80.7948 30.8642C78.6468 29.2075 77.1691 26.831 76.6336 24.1717C76.0981 21.5124 76.5408 18.7492 77.8802 16.3902C79.2195 14.0313 81.3656 12.2352 83.9236 11.3324C86.4816 10.4296 89.2796 10.4807 91.803 11.4763C94.3263 12.4719 96.4053 14.3451 97.6577 16.7514L99.7313 15.6727C98.1951 12.7221 95.6312 10.4365 92.5242 9.24789C89.4173 8.05928 85.9826 8.05001 82.8693 9.22183C79.756 10.3937 77.1798 12.6654 75.6276 15.6076C74.0755 18.5499 73.655 21.9588 74.4456 25.19C75.2361 28.4212 77.183 31.2509 79.9182 33.1442C82.6534 35.0375 85.9874 35.8633 89.29 35.4653C92.5927 35.0674 95.6352 33.4734 97.8424 30.9847C100.05 28.4959 101.269 25.2848 101.269 21.9582C101.273 21.4749 101.248 20.9918 101.194 20.5115Z" fill="#0052D9"/>
<path d="M72.3385 8.96793H51.4094V11.3064H72.3385V8.96793Z" fill="url(#paint0_linear_1_6853)"/>
<path d="M123.551 8.96793H106.931V11.3064H123.551V8.96793Z" fill="url(#paint1_linear_1_6853)"/>
<path d="M60.6432 20.5404V34.8208H62.9817V20.5404H60.6432Z" fill="url(#paint2_linear_1_6853)"/>
<path d="M122.813 20.417H106.931V20.5392V22.7555V34.8207H109.271V22.7555H122.813V20.417Z" fill="url(#paint3_linear_1_6853)"/>
<path d="M127.861 34.8197L146.335 8.96793H148.879L130.404 34.8197H127.861Z" fill="url(#paint4_linear_1_6853)"/>
<path d="M137.773 17.4074L131.743 8.96793H129.198L136.501 19.1873L137.773 17.4074Z" fill="url(#paint5_linear_1_6853)"/>
<path d="M140.303 24.5052L147.674 34.8193H150.217L141.575 22.7265L140.303 24.5052Z" fill="url(#paint6_linear_1_6853)"/>
<path d="M101.194 20.5115L100.019 20.5391H84.2799V22.8764H98.8911C98.6677 25.5798 97.4757 28.1117 95.5344 30.0064C93.593 31.9011 91.0329 33.0311 88.3248 33.1887C85.6167 33.3463 82.9428 32.5209 80.7948 30.8642C78.6468 29.2075 77.1691 26.831 76.6336 24.1717C76.0981 21.5124 76.5408 18.7492 77.8802 16.3902C79.2195 14.0313 81.3656 12.2352 83.9236 11.3324C86.4816 10.4296 89.2796 10.4807 91.803 11.4763C94.3263 12.4719 96.4053 14.3451 97.6577 16.7514L99.7313 15.6727C98.1951 12.7221 95.6312 10.4365 92.5242 9.24789C89.4173 8.05928 85.9826 8.05001 82.8693 9.22183C79.756 10.3937 77.1798 12.6654 75.6276 15.6076C74.0755 18.5499 73.655 21.9588 74.4456 25.19C75.2361 28.4212 77.183 31.2509 79.9182 33.1442C82.6534 35.0375 85.9874 35.8633 89.29 35.4653C92.5927 35.0674 95.6352 33.4734 97.8424 30.9847C100.05 28.4959 101.269 25.2848 101.269 21.9582C101.273 21.4749 101.248 20.9918 101.194 20.5115Z" fill="url(#paint7_linear_1_6853)"/>
<path d="M22 44C34.1503 44 44 34.1503 44 22C44 9.84974 34.1503 0 22 0C9.84974 0 0 9.84974 0 22C0 34.1503 9.84974 44 22 44Z" fill="#0052D9"/>
<path d="M22 44C34.1503 44 44 34.1503 44 22C44 9.84974 34.1503 0 22 0C9.84974 0 0 9.84974 0 22C0 34.1503 9.84974 44 22 44Z" fill="url(#paint8_linear_1_6853)"/>
<path d="M4.15473 28.1902C14.9056 19.46 26.6646 22.4795 29.3535 23.6307C31.089 24.3734 32.3799 25.8424 31.3672 29.8699C30.7969 32.1525 28.3408 36.5898 23.6405 37.5978C30.6956 36.9262 35.1643 30.5124 35.8103 27.7816C36.7415 23.824 42.9783 23.1756 40.7748 22.1431C30.0239 17.1041 14.2352 18.4473 4.15473 28.1902Z" fill="url(#paint9_linear_1_6853)"/>
<path d="M14.2479 16.615L14.4563 16.2914L14.6984 15.9946C15.324 15.1738 16.0379 14.4243 16.8274 13.7597C18.5665 12.25 20.6617 11.2338 22.8663 10.6052C26.242 9.71821 29.7923 9.99059 33.1097 11.0173C29.4477 6.78953 22.8291 5.41366 17.5118 7.11429C13.567 8.26202 9.97597 11.072 7.81205 14.6222C6.31978 17.0003 5.60041 19.8464 5.60041 22.6447C5.60041 23.0695 5.63301 23.4944 5.67375 23.9169C7.8194 22.4805 10.12 21.2903 12.5322 20.369C12.8463 19.0152 13.4298 17.7385 14.2479 16.615Z" fill="url(#paint10_linear_1_6853)"/>
<path d="M11.0895 34.1C12.9089 35.5865 15.145 36.6702 17.4916 36.9542C22.2106 37.6747 27.5022 34.8275 28.8397 30.3542C27.8888 31.1737 26.8158 31.8397 25.6596 32.3284C21.4691 34.0395 17.1133 32.794 14.5129 29.3019C13.7738 28.3585 13.2018 27.2955 12.8216 26.159C10.8508 26.99 8.96188 28.0032 7.17957 29.1855C8.10394 31.0923 9.43924 32.7707 11.0895 34.1Z" fill="url(#paint11_linear_1_6853)"/>
<defs>
<linearGradient id="paint0_linear_1_6853" x1="61.8745" y1="11.3064" x2="61.8745" y2="8.96793" gradientUnits="userSpaceOnUse">
<stop stop-color="white" stop-opacity="0"/>
<stop offset="1" stop-color="white" stop-opacity="0.15"/>
</linearGradient>
<linearGradient id="paint1_linear_1_6853" x1="115.241" y1="11.3064" x2="115.241" y2="8.96793" gradientUnits="userSpaceOnUse">
<stop stop-color="white" stop-opacity="0"/>
<stop offset="1" stop-color="white" stop-opacity="0.15"/>
</linearGradient>
<linearGradient id="paint2_linear_1_6853" x1="61.8119" y1="34.8208" x2="61.8119" y2="20.5392" gradientUnits="userSpaceOnUse">
<stop stop-color="white" stop-opacity="0"/>
<stop offset="1" stop-color="white" stop-opacity="0.15"/>
</linearGradient>
<linearGradient id="paint3_linear_1_6853" x1="114.872" y1="34.8207" x2="114.872" y2="20.417" gradientUnits="userSpaceOnUse">
<stop stop-color="white" stop-opacity="0"/>
<stop offset="1" stop-color="white" stop-opacity="0.15"/>
</linearGradient>
<linearGradient id="paint4_linear_1_6853" x1="138.369" y1="34.8209" x2="138.369" y2="8.96793" gradientUnits="userSpaceOnUse">
<stop stop-color="white" stop-opacity="0"/>
<stop offset="1" stop-color="white" stop-opacity="0.15"/>
</linearGradient>
<linearGradient id="paint5_linear_1_6853" x1="133.486" y1="19.1873" x2="133.486" y2="8.96793" gradientUnits="userSpaceOnUse">
<stop stop-color="white" stop-opacity="0"/>
<stop offset="1" stop-color="white" stop-opacity="0.15"/>
</linearGradient>
<linearGradient id="paint6_linear_1_6853" x1="145.26" y1="34.8205" x2="145.26" y2="22.7253" gradientUnits="userSpaceOnUse">
<stop stop-color="white" stop-opacity="0"/>
<stop offset="1" stop-color="white" stop-opacity="0.15"/>
</linearGradient>
<linearGradient id="paint7_linear_1_6853" x1="87.6648" y1="35.5589" x2="87.6648" y2="8.35153" gradientUnits="userSpaceOnUse">
<stop stop-color="white" stop-opacity="0"/>
<stop offset="1" stop-color="white" stop-opacity="0.15"/>
</linearGradient>
<linearGradient id="paint8_linear_1_6853" x1="22" y1="0" x2="22" y2="44" gradientUnits="userSpaceOnUse">
<stop stop-color="white" stop-opacity="0.2"/>
<stop offset="1" stop-color="white" stop-opacity="0"/>
</linearGradient>
<linearGradient id="paint9_linear_1_6853" x1="22.6988" y1="19.2726" x2="22.6988" y2="37.5978" gradientUnits="userSpaceOnUse">
<stop stop-color="white"/>
<stop offset="1" stop-color="white" stop-opacity="0.9"/>
</linearGradient>
<linearGradient id="paint10_linear_1_6853" x1="19.3603" y1="6.40424" x2="19.3603" y2="23.9169" gradientUnits="userSpaceOnUse">
<stop stop-color="white"/>
<stop offset="1" stop-color="white" stop-opacity="0.9"/>
</linearGradient>
<linearGradient id="paint11_linear_1_6853" x1="18.0096" y1="26.1672" x2="18.0096" y2="37.0648" gradientUnits="userSpaceOnUse">
<stop stop-color="white"/>
<stop offset="1" stop-color="white" stop-opacity="0.9"/>
</linearGradient>
</defs>
</svg>
